<svg width="19" height="19" viewBox="0 0 19 19" fill="none" xmlns="http://www.w3.org/2000/svg">
<g clip-path="url(#clip0_7_409)">
<path d="M8.83499 17.7376C8.13145 18.1906 7.29405 18.3892 6.462 18.3003C5.62997 18.2114 4.8534 17.8405 4.26142 17.249L3.74571 16.7333C3.51698 16.5021 3.38867 16.19 3.38867 15.8647C3.38867 15.5396 3.51698 15.2274 3.74571 14.9962L5.91714 12.8383C6.14605 12.6104 6.45591 12.4825 6.77892 12.4825C7.10194 12.4825 7.4118 12.6104 7.64071 12.8383C7.87193 13.0671 8.18404 13.1954 8.50928 13.1954C8.83452 13.1954 9.14664 13.0671 9.37785 12.8383L12.8386 9.37761C13.0673 9.14639 13.1956 8.83428 13.1956 8.50904C13.1956 8.1838 13.0673 7.87168 12.8386 7.64047C12.6107 7.41156 12.4827 7.10169 12.4827 6.77868C12.4827 6.45567 12.6107 6.1458 12.8386 5.91689L14.9285 3.74547C15.1598 3.51672 15.4719 3.38843 15.7971 3.38843C16.1224 3.38843 16.4345 3.51672 16.6657 3.74547L17.1814 4.26118C17.7834 4.8448 18.1671 5.61724 18.2683 6.44957C18.3697 7.28191 18.1824 8.12381 17.7378 8.83475C15.3713 12.3481 12.3483 15.3711 8.83499 17.7376Z" stroke="white" stroke-linecap="round" stroke-linejoin="round"/>
<path d="M9.4999 0.678467C8.34145 0.678467 7.19434 0.906639 6.12408 1.34996C5.05381 1.79328 4.08135 2.44306 3.26221 3.26221C2.44305 4.08135 1.79328 5.05381 1.34996 6.12408C0.90664 7.19434 0.678467 8.34145 0.678467 9.4999" stroke="white" stroke-linecap="round" stroke-linejoin="round"/>
<path d="M9.49986 4.07129C8.06011 4.07129 6.67934 4.64323 5.66128 5.66128C4.64323 6.67934 4.07129 8.06011 4.07129 9.49986" stroke="white" stroke-linecap="round" stroke-linejoin="round"/>
</g>
<defs>
<clipPath id="clip0_7_409">
<rect width="19" height="19" fill="white"/>
</clipPath>
</defs>
</svg>
